# xmcd
#
# Track frame offsets:
#	150
#	16102
#	25762
#	43999
#	65987
#	81215
#	87388
#	106425
#	125867
#	144646
#	151911
#	173133
#	194549
#	210536
#	232393
#	261803
#
# Disc length: 4119 seconds
#
# Revision: 1
# Processed by: cddbd v1.5.2PL0 Copyright (c) Steve Scherf et al.
# Submitted via: EZCDAudioConverter 5.0.0.1
#
DISCID=ed101510
DTITLE=Kangta - Polaris (english titles)
DYEAR=2001
DGENRE=Pop
TTITLE0=오! 그대를(Falling in love)
TTITLE1=별의 고백(Longing)
TTITLE2=북극성(Polaris)
TTITLE3=Thanks God(Thanks 8)
TTITLE4=스물셋(My Life)
TTITLE5=겨울(Last Winter)
TTITLE6=In your eyes
TTITLE7=당신이 알고 있던 난...(Still...)
TTITLE8=Doobidub
TTITLE9=나...세상...나(I will)
TTITLE10=그 해 여름(Last Summer Night)
TTITLE11=Blue Moon
TTITLE12=하얀 얼굴로(With your White face)
TTITLE13=오늘 같이 이런 창밖이 좋아(Rainy Day)
TTITLE14=Polaris - Insturment
TTITLE15=readme
EXTD=
EXTT0=
EXTT1=
EXTT2=
EXTT3=
EXTT4=
EXTT5=
EXTT6=
EXTT7=
EXTT8=
EXTT9=
EXTT10=
EXTT11=
EXTT12=
EXTT13=
EXTT14=
EXTT15=
PLAYORDER=
